<svg width="1024" height="753" viewBox="0 0 1024 753" fill="none" xmlns="http://www.w3.org/2000/svg">
<g opacity="0.2" filter="url(#filter0_f_175_198)">
<ellipse cx="502.5" cy="140" rx="670.5" ry="350" fill="#338AF3"/>
</g>
<path d="M23.0349 376C24.5302 376 25.6622 376.63 26.4308 377.891C27.2134 379.138 27.6047 380.953 27.6047 383.336C27.6047 385.719 27.2134 387.541 26.4308 388.802C25.6622 390.063 24.5302 390.693 23.0349 390.693C21.5536 390.693 20.4216 390.063 19.639 388.802C18.8564 387.541 18.4651 385.719 18.4651 383.336C18.4651 380.967 18.8564 379.152 19.639 377.891C20.4216 376.63 21.5536 376 23.0349 376ZM19.9534 383.336C19.9534 385.026 20.1072 386.35 20.4146 387.306L25.0683 378.099C24.5791 377.448 23.9013 377.122 23.0349 377.122C22.0706 377.122 21.316 377.635 20.771 378.66C20.2259 379.672 19.9534 381.23 19.9534 383.336ZM23.0349 389.55C24.0131 389.55 24.7748 389.044 25.3198 388.033C25.8648 387.008 26.1373 385.442 26.1373 383.336C26.1373 381.549 25.9627 380.163 25.6133 379.18L20.9596 388.469C21.4627 389.19 22.1545 389.55 23.0349 389.55Z" fill="url(#paint0_linear_175_198)" fill-opacity="0.6"/>
<path d="M24.2926 413.135H27.3741V414.236H19.3874V413.135H22.9511V401.455L19.5551 403.471L18.9682 402.536L23.1607 399.959H24.2926V413.135Z" fill="url(#paint1_linear_175_198)" fill-opacity="0.6"/>
<path d="M23.0349 423.502C24.5302 423.502 25.6622 424.133 26.4308 425.393C27.2134 426.64 27.6047 428.455 27.6047 430.838C27.6047 433.221 27.2134 435.043 26.4308 436.304C25.6622 437.565 24.5302 438.195 23.0349 438.195C21.5536 438.195 20.4216 437.565 19.639 436.304C18.8564 435.043 18.4651 433.221 18.4651 430.838C18.4651 428.469 18.8564 426.654 19.639 425.393C20.4216 424.133 21.5536 423.502 23.0349 423.502ZM19.9534 430.838C19.9534 432.529 20.1072 433.852 20.4146 434.808L25.0683 425.601C24.5791 424.95 23.9013 424.624 23.0349 424.624C22.0706 424.624 21.316 425.137 20.771 426.162C20.2259 427.174 19.9534 428.732 19.9534 430.838ZM23.0349 437.052C24.0131 437.052 24.7748 436.546 25.3198 435.535C25.8648 434.51 26.1373 432.944 26.1373 430.838C26.1373 429.051 25.9627 427.665 25.6133 426.682L20.9596 435.971C21.4627 436.692 22.1545 437.052 23.0349 437.052Z" fill="url(#paint2_linear_175_198)" fill-opacity="0.6"/>
<path d="M24.2926 460.637H27.3741V461.738H19.3874V460.637H22.9511V448.957L19.5551 450.973L18.9682 450.038L23.1607 447.461H24.2926V460.637Z" fill="url(#paint3_linear_175_198)" fill-opacity="0.6"/>
<path d="M24.2926 484.388H27.3741V485.489H19.3874V484.388H22.9511V472.708L19.5551 474.724L18.9682 473.789L23.1607 471.212H24.2926V484.388Z" fill="url(#paint4_linear_175_198)" fill-opacity="0.6"/>
<path d="M23.0349 494.755C24.5302 494.755 25.6622 495.386 26.4308 496.646C27.2134 497.893 27.6047 499.708 27.6047 502.091C27.6047 504.474 27.2134 506.296 26.4308 507.557C25.6622 508.818 24.5302 509.448 23.0349 509.448C21.5536 509.448 20.4216 508.818 19.639 507.557C18.8564 506.296 18.4651 504.474 18.4651 502.091C18.4651 499.722 18.8564 497.907 19.639 496.646C20.4216 495.386 21.5536 494.755 23.0349 494.755ZM19.9534 502.091C19.9534 503.782 20.1072 505.105 20.4146 506.061L25.0683 496.854C24.5791 496.203 23.9013 495.878 23.0349 495.878C22.0706 495.878 21.316 496.39 20.771 497.415C20.2259 498.427 19.9534 499.985 19.9534 502.091ZM23.0349 508.305C24.0131 508.305 24.7748 507.8 25.3198 506.788C25.8648 505.763 26.1373 504.197 26.1373 502.091C26.1373 500.304 25.9627 498.919 25.6133 497.935L20.9596 507.225C21.4627 507.945 22.1545 508.305 23.0349 508.305Z" fill="url(#paint5_linear_175_198)" fill-opacity="0.6"/>
<path d="M24.2926 531.89H27.3741V532.992H19.3874V531.89H22.9511V520.21L19.5551 522.226L18.9682 521.291L23.1607 518.714H24.2926V531.89Z" fill="url(#paint6_linear_175_198)" fill-opacity="0.6"/>
<path d="M23.0349 542.257C24.5302 542.257 25.6622 542.888 26.4308 544.149C27.2134 545.396 27.6047 547.211 27.6047 549.594C27.6047 551.977 27.2134 553.798 26.4308 555.059C25.6622 556.32 24.5302 556.95 23.0349 556.95C21.5536 556.95 20.4216 556.32 19.639 555.059C18.8564 553.798 18.4651 551.977 18.4651 549.594C18.4651 547.224 18.8564 545.409 19.639 544.149C20.4216 542.888 21.5536 542.257 23.0349 542.257ZM19.9534 549.594C19.9534 551.284 20.1072 552.607 20.4146 553.563L25.0683 544.356C24.5791 543.705 23.9013 543.38 23.0349 543.38C22.0706 543.38 21.316 543.892 20.771 544.918C20.2259 545.929 19.9534 547.488 19.9534 549.594ZM23.0349 555.807C24.0131 555.807 24.7748 555.302 25.3198 554.29C25.8648 553.265 26.1373 551.699 26.1373 549.594C26.1373 547.806 25.9627 546.421 25.6133 545.437L20.9596 554.727C21.4627 555.447 22.1545 555.807 23.0349 555.807Z" fill="url(#paint7_linear_175_198)" fill-opacity="0.6"/>
<path d="M23.0349 566.008C24.5302 566.008 25.6622 566.639 26.4308 567.9C27.2134 569.147 27.6047 570.962 27.6047 573.345C27.6047 575.728 27.2134 577.549 26.4308 578.81C25.6622 580.071 24.5302 580.701 23.0349 580.701C21.5536 580.701 20.4216 580.071 19.639 578.81C18.8564 577.549 18.4651 575.728 18.4651 573.345C18.4651 570.975 18.8564 569.16 19.639 567.9C20.4216 566.639 21.5536 566.008 23.0349 566.008ZM19.9534 573.345C19.9534 575.035 20.1072 576.358 20.4146 577.314L25.0683 568.107C24.5791 567.456 23.9013 567.131 23.0349 567.131C22.0706 567.131 21.316 567.643 20.771 568.669C20.2259 569.68 19.9534 571.239 19.9534 573.345ZM23.0349 579.558C24.0131 579.558 24.7748 579.053 25.3198 578.041C25.8648 577.016 26.1373 575.451 26.1373 573.345C26.1373 571.557 25.9627 570.172 25.6133 569.188L20.9596 578.478C21.4627 579.198 22.1545 579.558 23.0349 579.558Z" fill="url(#paint8_linear_175_198)" fill-opacity="0.6"/>
<path d="M24.2926 603.143H27.3741V604.245H19.3874V603.143H22.9511V591.464L19.5551 593.48L18.9682 592.544L23.1607 589.967H24.2926V603.143Z" fill="url(#paint9_linear_175_198)" fill-opacity="0.6"/>
<path d="M23.0349 613.511C24.5302 613.511 25.6622 614.141 26.4308 615.402C27.2134 616.649 27.6047 618.464 27.6047 620.847C27.6047 623.23 27.2134 625.052 26.4308 626.312C25.6622 627.573 24.5302 628.204 23.0349 628.204C21.5536 628.204 20.4216 627.573 19.639 626.312C18.8564 625.052 18.4651 623.23 18.4651 620.847C18.4651 618.478 18.8564 616.663 19.639 615.402C20.4216 614.141 21.5536 613.511 23.0349 613.511ZM19.9534 620.847C19.9534 622.537 20.1072 623.86 20.4146 624.816L25.0683 615.61C24.5791 614.958 23.9013 614.633 23.0349 614.633C22.0706 614.633 21.316 615.145 20.771 616.171C20.2259 617.182 19.9534 618.741 19.9534 620.847ZM23.0349 627.061C24.0131 627.061 24.7748 626.555 25.3198 625.543C25.8648 624.518 26.1373 622.953 26.1373 620.847C26.1373 619.059 25.9627 617.674 25.6133 616.69L20.9596 625.98C21.4627 626.7 22.1545 627.061 23.0349 627.061Z" fill="url(#paint10_linear_175_198)" fill-opacity="0.6"/>
<path d="M24.2926 650.645H27.3741V651.747H19.3874V650.645H22.9511V638.966L19.5551 640.982L18.9682 640.046L23.1607 637.469H24.2926V650.645Z" fill="url(#paint11_linear_175_198)" fill-opacity="0.6"/>
<path d="M24.2926 674.396H27.3741V675.498H19.3874V674.396H22.9511V662.717L19.5551 664.733L18.9682 663.798L23.1607 661.221H24.2926V674.396Z" fill="url(#paint12_linear_175_198)" fill-opacity="0.6"/>
<path d="M61.9651 423.502C63.4604 423.502 64.5924 424.133 65.361 425.393C66.1436 426.64 66.5349 428.455 66.5349 430.838C66.5349 433.221 66.1436 435.043 65.361 436.304C64.5924 437.565 63.4604 438.195 61.9651 438.195C60.4838 438.195 59.3518 437.565 58.5692 436.304C57.7866 435.043 57.3953 433.221 57.3953 430.838C57.3953 428.469 57.7866 426.654 58.5692 425.393C59.3518 424.133 60.4838 423.502 61.9651 423.502ZM58.8836 430.838C58.8836 432.529 59.0374 433.852 59.3448 434.808L63.9985 425.601C63.5093 424.95 62.8315 424.624 61.9651 424.624C61.0008 424.624 60.2462 425.137 59.7012 426.162C59.1561 427.174 58.8836 428.732 58.8836 430.838ZM61.9651 437.052C62.9433 437.052 63.705 436.546 64.25 435.535C64.795 434.51 65.0675 432.944 65.0675 430.838C65.0675 429.051 64.8928 427.665 64.5435 426.682L59.8898 435.971C60.3929 436.692 61.0847 437.052 61.9651 437.052Z" fill="url(#paint13_linear_175_198)" fill-opacity="0.6"/>
<path d="M63.2228 460.637H66.3043V461.738H58.3176V460.637H61.8812V448.957L58.4853 450.973L57.8984 450.038L62.0909 447.461H63.2228V460.637Z" fill="url(#paint14_linear_175_198)" fill-opacity="0.6"/>
<path d="M61.9651 471.004C63.4604 471.004 64.5924 471.635 65.361 472.895C66.1436 474.142 66.5349 475.957 66.5349 478.34C66.5349 480.723 66.1436 482.545 65.361 483.806C64.5924 485.067 63.4604 485.697 61.9651 485.697C60.4838 485.697 59.3518 485.067 58.5692 483.806C57.7866 482.545 57.3953 480.723 57.3953 478.34C57.3953 475.971 57.7866 474.156 58.5692 472.895C59.3518 471.635 60.4838 471.004 61.9651 471.004ZM58.8836 478.34C58.8836 480.031 59.0374 481.354 59.3448 482.31L63.9985 473.103C63.5093 472.452 62.8315 472.126 61.9651 472.126C61.0008 472.126 60.2462 472.639 59.7012 473.664C59.1561 474.676 58.8836 476.234 58.8836 478.34ZM61.9651 484.554C62.9433 484.554 63.705 484.049 64.25 483.037C64.795 482.012 65.0675 480.446 65.0675 478.34C65.0675 476.553 64.8928 475.168 64.5435 474.184L59.8898 483.474C60.3929 484.194 61.0847 484.554 61.9651 484.554Z" fill="url(#paint15_linear_175_198)" fill-opacity="0.6"/>
<path d="M61.9651 494.755C63.4604 494.755 64.5924 495.386 65.361 496.646C66.1436 497.893 66.5349 499.708 66.5349 502.091C66.5349 504.474 66.1436 506.296 65.361 507.557C64.5924 508.818 63.4604 509.448 61.9651 509.448C60.4838 509.448 59.3518 508.818 58.5692 507.557C57.7866 506.296 57.3953 504.474 57.3953 502.091C57.3953 499.722 57.7866 497.907 58.5692 496.646C59.3518 495.386 60.4838 494.755 61.9651 494.755ZM58.8836 502.091C58.8836 503.782 59.0374 505.105 59.3448 506.061L63.9985 496.854C63.5093 496.203 62.8315 495.878 61.9651 495.878C61.0008 495.878 60.2462 496.39 59.7012 497.415C59.1561 498.427 58.8836 499.985 58.8836 502.091ZM61.9651 508.305C62.9433 508.305 63.705 507.8 64.25 506.788C64.795 505.763 65.0675 504.197 65.0675 502.091C65.0675 500.304 64.8928 498.919 64.5435 497.935L59.8898 507.225C60.3929 507.945 61.0847 508.305 61.9651 508.305Z" fill="url(#paint16_linear_175_198)" fill-opacity="0.6"/>
<path d="M63.2228 531.89H66.3043V532.992H58.3176V531.89H61.8812V520.21L58.4853 522.226L57.8984 521.291L62.0909 518.714H63.2228V531.89Z" fill="url(#paint17_linear_175_198)" fill-opacity="0.6"/>
<path d="M61.9651 542.257C63.4604 542.257 64.5924 542.888 65.361 544.149C66.1436 545.396 66.5349 547.211 66.5349 549.594C66.5349 551.977 66.1436 553.798 65.361 555.059C64.5924 556.32 63.4604 556.95 61.9651 556.95C60.4838 556.95 59.3518 556.32 58.5692 555.059C57.7866 553.798 57.3953 551.977 57.3953 549.594C57.3953 547.224 57.7866 545.409 58.5692 544.149C59.3518 542.888 60.4838 542.257 61.9651 542.257ZM58.8836 549.594C58.8836 551.284 59.0374 552.607 59.3448 553.563L63.9985 544.356C63.5093 543.705 62.8315 543.38 61.9651 543.38C61.0008 543.38 60.2462 543.892 59.7012 544.918C59.1561 545.929 58.8836 547.488 58.8836 549.594ZM61.9651 555.807C62.9433 555.807 63.705 555.302 64.25 554.29C64.795 553.265 65.0675 551.699 65.0675 549.594C65.0675 547.806 64.8928 546.421 64.5435 545.437L59.8898 554.727C60.3929 555.447 61.0847 555.807 61.9651 555.807Z" fill="url(#paint18_linear_175_198)" fill-opacity="0.6"/>
<path d="M63.2228 579.392H66.3043V580.494H58.3176V579.392H61.8812V567.713L58.4853 569.728L57.8984 568.793L62.0909 566.216H63.2228V579.392Z" fill="url(#paint19_linear_175_198)" fill-opacity="0.6"/>
<path d="M61.9651 589.76C63.4604 589.76 64.5924 590.39 65.361 591.651C66.1436 592.898 66.5349 594.713 66.5349 597.096C66.5349 599.479 66.1436 601.301 65.361 602.561C64.5924 603.822 63.4604 604.453 61.9651 604.453C60.4838 604.453 59.3518 603.822 58.5692 602.561C57.7866 601.301 57.3953 599.479 57.3953 597.096C57.3953 594.726 57.7866 592.911 58.5692 591.651C59.3518 590.39 60.4838 589.76 61.9651 589.76ZM58.8836 597.096C58.8836 598.786 59.0374 600.109 59.3448 601.065L63.9985 591.859C63.5093 591.207 62.8315 590.882 61.9651 590.882C61.0008 590.882 60.2462 591.394 59.7012 592.42C59.1561 593.431 58.8836 594.99 58.8836 597.096ZM61.9651 603.31C62.9433 603.31 63.705 602.804 64.25 601.792C64.795 600.767 65.0675 599.202 65.0675 597.096C65.0675 595.308 64.8928 593.923 64.5435 592.939L59.8898 602.229C60.3929 602.949 61.0847 603.31 61.9651 603.31Z" fill="url(#paint20_linear_175_198)" fill-opacity="0.6"/>
<path d="M61.9651 613.511C63.4604 613.511 64.5924 614.141 65.361 615.402C66.1436 616.649 66.5349 618.464 66.5349 620.847C66.5349 623.23 66.1436 625.052 65.361 626.312C64.5924 627.573 63.4604 628.204 61.9651 628.204C60.4838 628.204 59.3518 627.573 58.5692 626.312C57.7866 625.052 57.3953 623.23 57.3953 620.847C57.3953 618.478 57.7866 616.663 58.5692 615.402C59.3518 614.141 60.4838 613.511 61.9651 613.511ZM58.8836 620.847C58.8836 622.537 59.0374 623.86 59.3448 624.816L63.9985 615.61C63.5093 614.958 62.8315 614.633 61.9651 614.633C61.0008 614.633 60.2462 615.145 59.7012 616.171C59.1561 617.182 58.8836 618.741 58.8836 620.847ZM61.9651 627.061C62.9433 627.061 63.705 626.555 64.25 625.543C64.795 624.518 65.0675 622.953 65.0675 620.847C65.0675 619.059 64.8928 617.674 64.5435 616.69L59.8898 625.98C60.3929 626.7 61.0847 627.061 61.9651 627.061Z" fill="url(#paint21_linear_175_198)" fill-opacity="0.6"/>
<path d="M63.2228 650.645H66.3043V651.747H58.3176V650.645H61.8812V638.966L58.4853 640.982L57.8984 640.046L62.0909 637.469H63.2228V650.645Z" fill="url(#paint22_linear_175_198)" fill-opacity="0.6"/>
<path d="M61.9651 661.013C63.4604 661.013 64.5924 661.643 65.361 662.904C66.1436 664.151 66.5349 665.966 66.5349 668.349C66.5349 670.732 66.1436 672.554 65.361 673.815C64.5924 675.075 63.4604 675.706 61.9651 675.706C60.4838 675.706 59.3518 675.075 58.5692 673.815C57.7866 672.554 57.3953 670.732 57.3953 668.349C57.3953 665.98 57.7866 664.165 58.5692 662.904C59.3518 661.643 60.4838 661.013 61.9651 661.013ZM58.8836 668.349C58.8836 670.039 59.0374 671.362 59.3448 672.318L63.9985 663.112C63.5093 662.461 62.8315 662.135 61.9651 662.135C61.0008 662.135 60.2462 662.648 59.7012 663.673C59.1561 664.684 58.8836 666.243 58.8836 668.349ZM61.9651 674.563C62.9433 674.563 63.705 674.057 64.25 673.046C64.795 672.02 65.0675 670.455 65.0675 668.349C65.0675 666.562 64.8928 665.176 64.5435 664.192L59.8898 673.482C60.3929 674.202 61.0847 674.563 61.9651 674.563Z" fill="url(#paint23_linear_175_198)" fill-opacity="0.6"/>
<path d="M63.2228 698.147H66.3043V699.249H58.3176V698.147H61.8812V686.468L58.4853 688.484L57.8984 687.549L62.0909 684.972H63.2228V698.147Z" fill="url(#paint24_linear_175_198)" fill-opacity="0.6"/>
<path d="M63.2228 721.899H66.3043V723H58.3176V721.899H61.8812V710.219L58.4853 712.235L57.8984 711.3L62.0909 708.723H63.2228V721.899Z" fill="url(#paint25_linear_175_198)" fill-opacity="0.6"/>
<path d="M3.56981 447.253C5.06512 447.253 6.1971 447.884 6.96572 449.144C7.74831 450.391 8.13961 452.206 8.13961 454.589C8.13961 456.972 7.74831 458.794 6.96572 460.055C6.1971 461.316 5.06512 461.946 3.56981 461.946C2.08846 461.946 0.956492 461.316 0.173895 460.055C-0.608701 458.794 -1 456.972 -1 454.589C-1 452.22 -0.608701 450.405 0.173895 449.144C0.956492 447.884 2.08846 447.253 3.56981 447.253ZM0.488331 454.589C0.488331 456.28 0.642056 457.603 0.949505 458.559L5.60316 449.352C5.11404 448.701 4.43625 448.375 3.56981 448.375C2.60553 448.375 1.85089 448.888 1.30587 449.913C0.760843 450.925 0.488331 452.483 0.488331 454.589ZM3.56981 460.803C4.54805 460.803 5.30969 460.297 5.85471 459.286C6.39973 458.261 6.67224 456.695 6.67224 454.589C6.67224 452.802 6.49756 451.417 6.14818 450.433L1.49453 459.722C1.99763 460.443 2.68938 460.803 3.56981 460.803Z" fill="url(#paint26_linear_175_198)" fill-opacity="0.6"/>
<path d="M3.56981 471.004C5.06512 471.004 6.1971 471.635 6.96572 472.895C7.74831 474.142 8.13961 475.957 8.13961 478.34C8.13961 480.723 7.74831 482.545 6.96572 483.806C6.1971 485.067 5.06512 485.697 3.56981 485.697C2.08846 485.697 0.956492 485.067 0.173895 483.806C-0.608701 482.545 -1 480.723 -1 478.34C-1 475.971 -0.608701 474.156 0.173895 472.895C0.956492 471.635 2.08846 471.004 3.56981 471.004ZM0.488331 478.34C0.488331 480.031 0.642056 481.354 0.949505 482.31L5.60316 473.103C5.11404 472.452 4.43625 472.126 3.56981 472.126C2.60553 472.126 1.85089 472.639 1.30587 473.664C0.760843 474.676 0.488331 476.234 0.488331 478.34ZM3.56981 484.554C4.54805 484.554 5.30969 484.049 5.85471 483.037C6.39973 482.012 6.67224 480.446 6.67224 478.34C6.67224 476.553 6.49756 475.168 6.14818 474.184L1.49453 483.474C1.99763 484.194 2.68938 484.554 3.56981 484.554Z" fill="url(#paint27_linear_175_198)" fill-opacity="0.6"/>
<path d="M4.82755 508.139H7.90903V509.24H-0.0776539V508.139H3.48596V496.459L0.0900455 498.475L-0.496902 497.54L3.69558 494.963H4.82755V508.139Z" fill="url(#paint28_linear_175_198)" fill-opacity="0.6"/>
<path d="M3.56981 518.506C5.06512 518.506 6.1971 519.137 6.96572 520.398C7.74831 521.644 8.13961 523.459 8.13961 525.842C8.13961 528.225 7.74831 530.047 6.96572 531.308C6.1971 532.569 5.06512 533.199 3.56981 533.199C2.08846 533.199 0.956492 532.569 0.173895 531.308C-0.608701 530.047 -1 528.225 -1 525.842C-1 523.473 -0.608701 521.658 0.173895 520.398C0.956492 519.137 2.08846 518.506 3.56981 518.506ZM0.488331 525.842C0.488331 527.533 0.642056 528.856 0.949505 529.812L5.60316 520.605C5.11404 519.954 4.43625 519.629 3.56981 519.629C2.60553 519.629 1.85089 520.141 1.30587 521.166C0.760843 522.178 0.488331 523.737 0.488331 525.842ZM3.56981 532.056C4.54805 532.056 5.30969 531.551 5.85471 530.539C6.39973 529.514 6.67224 527.948 6.67224 525.842C6.67224 524.055 6.49756 522.67 6.14818 521.686L1.49453 530.976C1.99763 531.696 2.68938 532.056 3.56981 532.056Z" fill="url(#paint29_linear_175_198)" fill-opacity="0.6"/>
<path d="M4.82755 555.641H7.90903V556.743H-0.0776539V555.641H3.48596V543.962L0.0900455 545.977L-0.496902 545.042L3.69558 542.465H4.82755V555.641Z" fill="url(#paint30_linear_175_198)" fill-opacity="0.6"/>
<path d="M4.82755 579.392H7.90903V580.494H-0.0776539V579.392H3.48596V567.713L0.0900455 569.728L-0.496902 568.793L3.69558 566.216H4.82755V579.392Z" fill="url(#paint31_linear_175_198)" fill-opacity="0.6"/>
<path d="M43.7577 413.135H46.8392V414.236H38.8525V413.135H42.4162V401.455L39.0202 403.471L38.4333 402.536L42.6258 399.959H43.7577V413.135Z" fill="url(#paint32_linear_175_198)" fill-opacity="0.6"/>
<path d="M42.5 423.502C43.9953 423.502 45.1273 424.133 45.8959 425.393C46.6785 426.64 47.0698 428.455 47.0698 430.838C47.0698 433.221 46.6785 435.043 45.8959 436.304C45.1273 437.565 43.9953 438.195 42.5 438.195C41.0187 438.195 39.8867 437.565 39.1041 436.304C38.3215 435.043 37.9302 433.221 37.9302 430.838C37.9302 428.469 38.3215 426.654 39.1041 425.393C39.8867 424.133 41.0187 423.502 42.5 423.502ZM39.4185 430.838C39.4185 432.529 39.5723 433.852 39.8797 434.808L44.5334 425.601C44.0442 424.95 43.3664 424.624 42.5 424.624C41.5357 424.624 40.7811 425.137 40.2361 426.162C39.691 427.174 39.4185 428.732 39.4185 430.838ZM42.5 437.052C43.4782 437.052 44.2399 436.546 44.7849 435.535C45.3299 434.51 45.6024 432.944 45.6024 430.838C45.6024 429.051 45.4277 427.665 45.0784 426.682L40.4247 435.971C40.9278 436.692 41.6196 437.052 42.5 437.052Z" fill="url(#paint33_linear_175_198)" fill-opacity="0.6"/>
<path d="M43.7577 460.637H46.8392V461.738H38.8525V460.637H42.4162V448.957L39.0202 450.973L38.4333 450.038L42.6258 447.461H43.7577V460.637Z" fill="url(#paint34_linear_175_198)" fill-opacity="0.6"/>
<path d="M43.7577 484.388H46.8392V485.489H38.8525V484.388H42.4162V472.708L39.0202 474.724L38.4333 473.789L42.6258 471.212H43.7577V484.388Z" fill="url(#paint35_linear_175_198)" fill-opacity="0.6"/>
<path d="M42.5 494.755C43.9953 494.755 45.1273 495.386 45.8959 496.646C46.6785 497.893 47.0698 499.708 47.0698 502.091C47.0698 504.474 46.6785 506.296 45.8959 507.557C45.1273 508.818 43.9953 509.448 42.5 509.448C41.0187 509.448 39.8867 508.818 39.1041 507.557C38.3215 506.296 37.9302 504.474 37.9302 502.091C37.9302 499.722 38.3215 497.907 39.1041 496.646C39.8867 495.386 41.0187 494.755 42.5 494.755ZM39.4185 502.091C39.4185 503.782 39.5723 505.105 39.8797 506.061L44.5334 496.854C44.0442 496.203 43.3664 495.878 42.5 495.878C41.5357 495.878 40.7811 496.39 40.2361 497.415C39.691 498.427 39.4185 499.985 39.4185 502.091ZM42.5 508.305C43.4782 508.305 44.2399 507.8 44.7849 506.788C45.3299 505.763 45.6024 504.197 45.6024 502.091C45.6024 500.304 45.4277 498.919 45.0784 497.935L40.4247 507.225C40.9278 507.945 41.6196 508.305 42.5 508.305Z" fill="url(#paint36_linear_175_198)" fill-opacity="0.6"/>
<path d="M43.7577 531.89H46.8392V532.992H38.8525V531.89H42.4162V520.21L39.0202 522.226L38.4333 521.291L42.6258 518.714H43.7577V531.89Z" fill="url(#paint37_linear_175_198)" fill-opacity="0.6"/>
<path d="M43.7577 555.641H46.8392V556.743H38.8525V555.641H42.4162V543.962L39.0202 545.977L38.4333 545.042L42.6258 542.465H43.7577V555.641Z" fill="url(#paint38_linear_175_198)" fill-opacity="0.6"/>
<path d="M42.5 566.008C43.9953 566.008 45.1273 566.639 45.8959 567.9C46.6785 569.147 47.0698 570.962 47.0698 573.345C47.0698 575.728 46.6785 577.549 45.8959 578.81C45.1273 580.071 43.9953 580.701 42.5 580.701C41.0187 580.701 39.8867 580.071 39.1041 578.81C38.3215 577.549 37.9302 575.728 37.9302 573.345C37.9302 570.975 38.3215 569.16 39.1041 567.9C39.8867 566.639 41.0187 566.008 42.5 566.008ZM39.4185 573.345C39.4185 575.035 39.5723 576.358 39.8797 577.314L44.5334 568.107C44.0442 567.456 43.3664 567.131 42.5 567.131C41.5357 567.131 40.7811 567.643 40.2361 568.669C39.691 569.68 39.4185 571.239 39.4185 573.345ZM42.5 579.558C43.4782 579.558 44.2399 579.053 44.7849 578.041C45.3299 577.016 45.6024 575.451 45.6024 573.345C45.6024 571.557 45.4277 570.172 45.0784 569.188L40.4247 578.478C40.9278 579.198 41.6196 579.558 42.5 579.558Z" fill="url(#paint39_linear_175_198)" fill-opacity="0.6"/>
<path d="M43.7577 603.143H46.8392V604.245H38.8525V603.143H42.4162V591.464L39.0202 593.48L38.4333 592.544L42.6258 589.967H43.7577V603.143Z" fill="url(#paint40_linear_175_198)" fill-opacity="0.6"/>
<path d="M42.5 613.511C43.9953 613.511 45.1273 614.141 45.8959 615.402C46.6785 616.649 47.0698 618.464 47.0698 620.847C47.0698 623.23 46.6785 625.052 45.8959 626.312C45.1273 627.573 43.9953 628.204 42.5 628.204C41.0187 628.204 39.8867 627.573 39.1041 626.312C38.3215 625.052 37.9302 623.23 37.9302 620.847C37.9302 618.478 38.3215 616.663 39.1041 615.402C39.8867 614.141 41.0187 613.511 42.5 613.511ZM39.4185 620.847C39.4185 622.537 39.5723 623.86 39.8797 624.816L44.5334 615.61C44.0442 614.958 43.3664 614.633 42.5 614.633C41.5357 614.633 40.7811 615.145 40.2361 616.171C39.691 617.182 39.4185 618.741 39.4185 620.847ZM42.5 627.061C43.4782 627.061 44.2399 626.555 44.7849 625.543C45.3299 624.518 45.6024 622.953 45.6024 620.847C45.6024 619.059 45.4277 617.674 45.0784 616.69L40.4247 625.98C40.9278 626.7 41.6196 627.061 42.5 627.061Z" fill="url(#paint41_linear_175_198)" fill-opacity="0.6"/>
<path d="M81.4302 399.751C82.9255 399.751 84.0575 400.381 84.8261 401.642C85.6087 402.889 86 404.704 86 407.087C86 409.47 85.6087 411.292 84.8261 412.553C84.0575 413.814 82.9255 414.444 81.4302 414.444C79.9489 414.444 78.8169 413.814 78.0343 412.553C77.2517 411.292 76.8604 409.47 76.8604 407.087C76.8604 404.718 77.2517 402.903 78.0343 401.642C78.8169 400.381 79.9489 399.751 81.4302 399.751ZM78.3487 407.087C78.3487 408.777 78.5024 410.101 78.8099 411.057L83.4636 401.85C82.9744 401.199 82.2966 400.873 81.4302 400.873C80.4659 400.873 79.7113 401.386 79.1663 402.411C78.6212 403.423 78.3487 404.981 78.3487 407.087ZM81.4302 413.301C82.4084 413.301 83.1701 412.795 83.7151 411.784C84.2601 410.759 84.5326 409.193 84.5326 407.087C84.5326 405.3 84.3579 403.914 84.0086 402.931L79.3549 412.22C79.858 412.941 80.5498 413.301 81.4302 413.301Z" fill="url(#paint42_linear_175_198)" fill-opacity="0.6"/>
<path d="M82.6879 436.886H85.7694V437.987H77.7827V436.886H81.3463V425.206L77.9504 427.222L77.3635 426.287L81.556 423.71H82.6879V436.886Z" fill="url(#paint43_linear_175_198)" fill-opacity="0.6"/>
<path d="M82.6879 460.637H85.7694V461.738H77.7827V460.637H81.3463V448.957L77.9504 450.973L77.3635 450.038L81.556 447.461H82.6879V460.637Z" fill="url(#paint44_linear_175_198)" fill-opacity="0.6"/>
<path d="M81.4302 471.004C82.9255 471.004 84.0575 471.635 84.8261 472.895C85.6087 474.142 86 475.957 86 478.34C86 480.723 85.6087 482.545 84.8261 483.806C84.0575 485.067 82.9255 485.697 81.4302 485.697C79.9489 485.697 78.8169 485.067 78.0343 483.806C77.2517 482.545 76.8604 480.723 76.8604 478.34C76.8604 475.971 77.2517 474.156 78.0343 472.895C78.8169 471.635 79.9489 471.004 81.4302 471.004ZM78.3487 478.34C78.3487 480.031 78.5024 481.354 78.8099 482.31L83.4636 473.103C82.9744 472.452 82.2966 472.126 81.4302 472.126C80.4659 472.126 79.7113 472.639 79.1663 473.664C78.6212 474.676 78.3487 476.234 78.3487 478.34ZM81.4302 484.554C82.4084 484.554 83.1701 484.049 83.7151 483.037C84.2601 482.012 84.5326 480.446 84.5326 478.34C84.5326 476.553 84.3579 475.168 84.0086 474.184L79.3549 483.474C79.858 484.194 80.5498 484.554 81.4302 484.554Z" fill="url(#paint45_linear_175_198)" fill-opacity="0.6"/>
<path d="M81.4302 494.755C82.9255 494.755 84.0575 495.386 84.8261 496.646C85.6087 497.893 86 499.708 86 502.091C86 504.474 85.6087 506.296 84.8261 507.557C84.0575 508.818 82.9255 509.448 81.4302 509.448C79.9489 509.448 78.8169 508.818 78.0343 507.557C77.2517 506.296 76.8604 504.474 76.8604 502.091C76.8604 499.722 77.2517 497.907 78.0343 496.646C78.8169 495.386 79.9489 494.755 81.4302 494.755ZM78.3487 502.091C78.3487 503.782 78.5024 505.105 78.8099 506.061L83.4636 496.854C82.9744 496.203 82.2966 495.878 81.4302 495.878C80.4659 495.878 79.7113 496.39 79.1663 497.415C78.6212 498.427 78.3487 499.985 78.3487 502.091ZM81.4302 508.305C82.4084 508.305 83.1701 507.8 83.7151 506.788C84.2601 505.763 84.5326 504.197 84.5326 502.091C84.5326 500.304 84.3579 498.919 84.0086 497.935L79.3549 507.225C79.858 507.945 80.5498 508.305 81.4302 508.305Z" fill="url(#paint46_linear_175_198)" fill-opacity="0.6"/>
<g opacity="0.6">
<path d="M909.93 76C911.356 76 912.436 76.605 913.17 77.8149C913.916 79.0115 914.29 80.7532 914.29 83.0401C914.29 85.327 913.916 87.0754 913.17 88.2853C912.436 89.4952 911.356 90.1002 909.93 90.1002C908.517 90.1002 907.437 89.4952 906.69 88.2853C905.943 87.0754 905.57 85.327 905.57 83.0401C905.57 80.7665 905.943 79.0248 906.69 77.8149C907.437 76.605 908.517 76 909.93 76ZM906.99 83.0401C906.99 84.6622 907.137 85.932 907.43 86.8494L911.87 78.0143C911.403 77.3894 910.756 77.077 909.93 77.077C909.01 77.077 908.29 77.5689 907.77 78.5528C907.25 79.5234 906.99 81.0192 906.99 83.0401ZM909.93 89.0033C910.863 89.0033 911.59 88.518 912.11 87.5474C912.63 86.5635 912.89 85.0611 912.89 83.0401C912.89 81.325 912.723 79.9954 912.39 79.0514L907.95 87.9662C908.43 88.6576 909.09 89.0033 909.93 89.0033Z" fill="url(#paint47_linear_175_198)"/>
<path d="M911.13 111.637H914.07V112.694H906.45V111.637H909.85V100.428L906.61 102.363L906.05 101.465L910.05 98.9922H911.13V111.637Z" fill="url(#paint48_linear_175_198)"/>
<path d="M909.93 121.586C911.356 121.586 912.436 122.191 913.17 123.4C913.916 124.597 914.29 126.339 914.29 128.626C914.29 130.913 913.916 132.661 913.17 133.871C912.436 135.081 911.356 135.686 909.93 135.686C908.517 135.686 907.437 135.081 906.69 133.871C905.943 132.661 905.57 130.913 905.57 128.626C905.57 126.352 905.943 124.61 906.69 123.4C907.437 122.191 908.517 121.586 909.93 121.586ZM906.99 128.626C906.99 130.248 907.137 131.518 907.43 132.435L911.87 123.6C911.403 122.975 910.756 122.663 909.93 122.663C909.01 122.663 908.29 123.155 907.77 124.138C907.25 125.109 906.99 126.605 906.99 128.626ZM909.93 134.589C910.863 134.589 911.59 134.104 912.11 133.133C912.63 132.149 912.89 130.647 912.89 128.626C912.89 126.911 912.723 125.581 912.39 124.637L907.95 133.552C908.43 134.243 909.09 134.589 909.93 134.589Z" fill="url(#paint49_linear_175_198)"/>
<path d="M911.13 157.222H914.07V158.279H906.45V157.222H909.85V146.014L906.61 147.948L906.05 147.051L910.05 144.578H911.13V157.222Z" fill="url(#paint50_linear_175_198)"/>
<path d="M911.13 180.015H914.07V181.072H906.45V180.015H909.85V168.807L906.61 170.741L906.05 169.844L910.05 167.371H911.13V180.015Z" fill="url(#paint51_linear_175_198)"/>
<path d="M909.93 189.964C911.356 189.964 912.436 190.569 913.17 191.779C913.916 192.976 914.29 194.717 914.29 197.004C914.29 199.291 913.916 201.039 913.17 202.249C912.436 203.459 911.356 204.064 909.93 204.064C908.517 204.064 907.437 203.459 906.69 202.249C905.943 201.039 905.57 199.291 905.57 197.004C905.57 194.731 905.943 192.989 906.69 191.779C907.437 190.569 908.517 189.964 909.93 189.964ZM906.99 197.004C906.99 198.626 907.137 199.896 907.43 200.813L911.87 191.978C911.403 191.353 910.756 191.041 909.93 191.041C909.01 191.041 908.29 191.533 907.77 192.517C907.25 193.487 906.99 194.983 906.99 197.004ZM909.93 202.967C910.863 202.967 911.59 202.482 912.11 201.511C912.63 200.528 912.89 199.025 912.89 197.004C912.89 195.289 912.723 193.959 912.39 193.015L907.95 201.93C908.43 202.622 909.09 202.967 909.93 202.967Z" fill="url(#paint52_linear_175_198)"/>
<path d="M911.13 225.601H914.07V226.658H906.45V225.601H909.85V214.392L906.61 216.327L906.05 215.429L910.05 212.956H911.13V225.601Z" fill="url(#paint53_linear_175_198)"/>
<path d="M909.93 235.55C911.356 235.55 912.436 236.155 913.17 237.365C913.916 238.561 914.29 240.303 914.29 242.59C914.29 244.877 913.916 246.625 913.17 247.835C912.436 249.045 911.356 249.65 909.93 249.65C908.517 249.65 907.437 249.045 906.69 247.835C905.943 246.625 905.57 244.877 905.57 242.59C905.57 240.316 905.943 238.574 906.69 237.365C907.437 236.155 908.517 235.55 909.93 235.55ZM906.99 242.59C906.99 244.212 907.137 245.482 907.43 246.399L911.87 237.564C911.403 236.939 910.756 236.627 909.93 236.627C909.01 236.627 908.29 237.119 907.77 238.102C907.25 239.073 906.99 240.569 906.99 242.59ZM909.93 248.553C910.863 248.553 911.59 248.068 912.11 247.097C912.63 246.113 912.89 244.611 912.89 242.59C912.89 240.875 912.723 239.545 912.39 238.601L907.95 247.516C908.43 248.207 909.09 248.553 909.93 248.553Z" fill="url(#paint54_linear_175_198)"/>
<path d="M909.93 258.342C911.356 258.342 912.436 258.947 913.17 260.157C913.916 261.354 914.29 263.096 914.29 265.383C914.29 267.669 913.916 269.418 913.17 270.628C912.436 271.838 911.356 272.443 909.93 272.443C908.517 272.443 907.437 271.838 906.69 270.628C905.943 269.418 905.57 267.669 905.57 265.383C905.57 263.109 905.943 261.367 906.69 260.157C907.437 258.947 908.517 258.342 909.93 258.342ZM906.99 265.383C906.99 267.005 907.137 268.274 907.43 269.192L911.87 260.357C911.403 259.732 910.756 259.419 909.93 259.419C909.01 259.419 908.29 259.911 907.77 260.895C907.25 261.866 906.99 263.362 906.99 265.383ZM909.93 271.346C910.863 271.346 911.59 270.86 912.11 269.89C912.63 268.906 912.89 267.404 912.89 265.383C912.89 263.667 912.723 262.338 912.39 261.394L907.95 270.309C908.43 271 909.09 271.346 909.93 271.346Z" fill="url(#paint55_linear_175_198)"/>
<path d="M911.13 293.979H914.07V295.036H906.45V293.979H909.85V282.771L906.61 284.705L906.05 283.808L910.05 281.335H911.13V293.979Z" fill="url(#paint56_linear_175_198)"/>
<path d="M909.93 303.928C911.356 303.928 912.436 304.533 913.17 305.743C913.916 306.94 914.29 308.681 914.29 310.968C914.29 313.255 913.916 315.003 913.17 316.213C912.436 317.423 911.356 318.028 909.93 318.028C908.517 318.028 907.437 317.423 906.69 316.213C905.943 315.003 905.57 313.255 905.57 310.968C905.57 308.695 905.943 306.953 906.69 305.743C907.437 304.533 908.517 303.928 909.93 303.928ZM906.99 310.968C906.99 312.59 907.137 313.86 907.43 314.777L911.87 305.942C911.403 305.317 910.756 305.005 909.93 305.005C909.01 305.005 908.29 305.497 907.77 306.481C907.25 307.451 906.99 308.947 906.99 310.968ZM909.93 316.931C910.863 316.931 911.59 316.446 912.11 315.475C912.63 314.492 912.89 312.989 912.89 310.968C912.89 309.253 912.723 307.923 912.39 306.979L907.95 315.894C908.43 316.586 909.09 316.931 909.93 316.931Z" fill="url(#paint57_linear_175_198)"/>
<path d="M911.13 339.565H914.07V340.622H906.45V339.565H909.85V328.356L906.61 330.291L906.05 329.393L910.05 326.92H911.13V339.565Z" fill="url(#paint58_linear_175_198)"/>
<path d="M911.13 362.357H914.07V363.414H906.45V362.357H909.85V351.149L906.61 353.084L906.05 352.186L910.05 349.713H911.13V362.357Z" fill="url(#paint59_linear_175_198)"/>
<path d="M947.07 121.586C948.497 121.586 949.577 122.191 950.31 123.4C951.057 124.597 951.43 126.339 951.43 128.626C951.43 130.913 951.057 132.661 950.31 133.871C949.577 135.081 948.497 135.686 947.07 135.686C945.657 135.686 944.577 135.081 943.83 133.871C943.084 132.661 942.71 130.913 942.71 128.626C942.71 126.352 943.084 124.61 943.83 123.4C944.577 122.191 945.657 121.586 947.07 121.586ZM944.13 128.626C944.13 130.248 944.277 131.518 944.57 132.435L949.01 123.6C948.543 122.975 947.897 122.663 947.07 122.663C946.15 122.663 945.43 123.155 944.91 124.138C944.39 125.109 944.13 126.605 944.13 128.626ZM947.07 134.589C948.003 134.589 948.73 134.104 949.25 133.133C949.77 132.149 950.03 130.647 950.03 128.626C950.03 126.911 949.863 125.581 949.53 124.637L945.09 133.552C945.57 134.243 946.23 134.589 947.07 134.589Z" fill="url(#paint60_linear_175_198)"/>
<path d="M948.27 157.222H951.21V158.279H943.59V157.222H946.99V146.014L943.75 147.948L943.19 147.051L947.19 144.578H948.27V157.222Z" fill="url(#paint61_linear_175_198)"/>
<path d="M947.07 167.171C948.497 167.171 949.577 167.776 950.31 168.986C951.057 170.183 951.43 171.924 951.43 174.211C951.43 176.498 951.057 178.247 950.31 179.457C949.577 180.666 948.497 181.271 947.07 181.271C945.657 181.271 944.577 180.666 943.83 179.457C943.084 178.247 942.71 176.498 942.71 174.211C942.71 171.938 943.084 170.196 943.83 168.986C944.577 167.776 945.657 167.171 947.07 167.171ZM944.13 174.211C944.13 175.833 944.277 177.103 944.57 178.021L949.01 169.186C948.543 168.561 947.897 168.248 947.07 168.248C946.15 168.248 945.43 168.74 944.91 169.724C944.39 170.695 944.13 172.19 944.13 174.211ZM947.07 180.174C948.003 180.174 948.73 179.689 949.25 178.719C949.77 177.735 950.03 176.232 950.03 174.211C950.03 172.496 949.863 171.167 949.53 170.223L945.09 179.137C945.57 179.829 946.23 180.174 947.07 180.174Z" fill="url(#paint62_linear_175_198)"/>
<path d="M947.07 189.964C948.497 189.964 949.577 190.569 950.31 191.779C951.057 192.976 951.43 194.717 951.43 197.004C951.43 199.291 951.057 201.039 950.31 202.249C949.577 203.459 948.497 204.064 947.07 204.064C945.657 204.064 944.577 203.459 943.83 202.249C943.084 201.039 942.71 199.291 942.71 197.004C942.71 194.731 943.084 192.989 943.83 191.779C944.577 190.569 945.657 189.964 947.07 189.964ZM944.13 197.004C944.13 198.626 944.277 199.896 944.57 200.813L949.01 191.978C948.543 191.353 947.897 191.041 947.07 191.041C946.15 191.041 945.43 191.533 944.91 192.517C944.39 193.487 944.13 194.983 944.13 197.004ZM947.07 202.967C948.003 202.967 948.73 202.482 949.25 201.511C949.77 200.528 950.03 199.025 950.03 197.004C950.03 195.289 949.863 193.959 949.53 193.015L945.09 201.93C945.57 202.622 946.23 202.967 947.07 202.967Z" fill="url(#paint63_linear_175_198)"/>
<path d="M948.27 225.601H951.21V226.658H943.59V225.601H946.99V214.392L943.75 216.327L943.19 215.429L947.19 212.956H948.27V225.601Z" fill="url(#paint64_linear_175_198)"/>
<path d="M947.07 235.55C948.497 235.55 949.577 236.155 950.31 237.365C951.057 238.561 951.43 240.303 951.43 242.59C951.43 244.877 951.057 246.625 950.31 247.835C949.577 249.045 948.497 249.65 947.07 249.65C945.657 249.65 944.577 249.045 943.83 247.835C943.084 246.625 942.71 244.877 942.71 242.59C942.71 240.316 943.084 238.574 943.83 237.365C944.577 236.155 945.657 235.55 947.07 235.55ZM944.13 242.59C944.13 244.212 944.277 245.482 944.57 246.399L949.01 237.564C948.543 236.939 947.897 236.627 947.07 236.627C946.15 236.627 945.43 237.119 944.91 238.102C944.39 239.073 944.13 240.569 944.13 242.59ZM947.07 248.553C948.003 248.553 948.73 248.068 949.25 247.097C949.77 246.113 950.03 244.611 950.03 242.59C950.03 240.875 949.863 239.545 949.53 238.601L945.09 247.516C945.57 248.207 946.23 248.553 947.07 248.553Z" fill="url(#paint65_linear_175_198)"/>
<path d="M948.27 271.186H951.21V272.243H943.59V271.186H946.99V259.978L943.75 261.912L943.19 261.015L947.19 258.542H948.27V271.186Z" fill="url(#paint66_linear_175_198)"/>
<path d="M947.07 281.135C948.497 281.135 949.577 281.74 950.31 282.95C951.057 284.147 951.43 285.888 951.43 288.175C951.43 290.462 951.057 292.211 950.31 293.421C949.577 294.63 948.497 295.235 947.07 295.235C945.657 295.235 944.577 294.63 943.83 293.421C943.084 292.211 942.71 290.462 942.71 288.175C942.71 285.902 943.084 284.16 943.83 282.95C944.577 281.74 945.657 281.135 947.07 281.135ZM944.13 288.175C944.13 289.797 944.277 291.067 944.57 291.985L949.01 283.15C948.543 282.525 947.897 282.212 947.07 282.212C946.15 282.212 945.43 282.704 944.91 283.688C944.39 284.659 944.13 286.154 944.13 288.175ZM947.07 294.139C948.003 294.139 948.73 293.653 949.25 292.683C949.77 291.699 950.03 290.196 950.03 288.175C950.03 286.46 949.863 285.131 949.53 284.187L945.09 293.101C945.57 293.793 946.23 294.139 947.07 294.139Z" fill="url(#paint67_linear_175_198)"/>
<path d="M947.07 303.928C948.497 303.928 949.577 304.533 950.31 305.743C951.057 306.94 951.43 308.681 951.43 310.968C951.43 313.255 951.057 315.003 950.31 316.213C949.577 317.423 948.497 318.028 947.07 318.028C945.657 318.028 944.577 317.423 943.83 316.213C943.084 315.003 942.71 313.255 942.71 310.968C942.71 308.695 943.084 306.953 943.83 305.743C944.577 304.533 945.657 303.928 947.07 303.928ZM944.13 310.968C944.13 312.59 944.277 313.86 944.57 314.777L949.01 305.942C948.543 305.317 947.897 305.005 947.07 305.005C946.15 305.005 945.43 305.497 944.91 306.481C944.39 307.451 944.13 308.947 944.13 310.968ZM947.07 316.931C948.003 316.931 948.73 316.446 949.25 315.475C949.77 314.492 950.03 312.989 950.03 310.968C950.03 309.253 949.863 307.923 949.53 306.979L945.09 315.894C945.57 316.586 946.23 316.931 947.07 316.931Z" fill="url(#paint68_linear_175_198)"/>
<path d="M948.27 339.565H951.21V340.622H943.59V339.565H946.99V328.356L943.75 330.291L943.19 329.393L947.19 326.92H948.27V339.565Z" fill="url(#paint69_linear_175_198)"/>
<path d="M947.07 349.514C948.497 349.514 949.577 350.119 950.31 351.329C951.057 352.525 951.43 354.267 951.43 356.554C951.43 358.841 951.057 360.589 950.31 361.799C949.577 363.009 948.497 363.614 947.07 363.614C945.657 363.614 944.577 363.009 943.83 361.799C943.084 360.589 942.71 358.841 942.71 356.554C942.71 354.28 943.084 352.538 943.83 351.329C944.577 350.119 945.657 349.514 947.07 349.514ZM944.13 356.554C944.13 358.176 944.277 359.446 944.57 360.363L949.01 351.528C948.543 350.903 947.897 350.591 947.07 350.591C946.15 350.591 945.43 351.083 944.91 352.066C944.39 353.037 944.13 354.533 944.13 356.554ZM947.07 362.517C948.003 362.517 948.73 362.032 949.25 361.061C949.77 360.077 950.03 358.575 950.03 356.554C950.03 354.839 949.863 353.509 949.53 352.565L945.09 361.48C945.57 362.171 946.23 362.517 947.07 362.517Z" fill="url(#paint70_linear_175_198)"/>
<path d="M948.27 385.15H951.21V386.207H943.59V385.15H946.99V373.942L943.75 375.876L943.19 374.979L947.19 372.506H948.27V385.15Z" fill="url(#paint71_linear_175_198)"/>
<path d="M948.27 407.943H951.21V409H943.59V407.943H946.99V396.735L943.75 398.669L943.19 397.772L947.19 395.299H948.27V407.943Z" fill="url(#paint72_linear_175_198)"/>
<path d="M891.36 144.378C892.786 144.378 893.866 144.983 894.599 146.193C895.346 147.39 895.719 149.132 895.719 151.419C895.719 153.705 895.346 155.454 894.599 156.664C893.866 157.874 892.786 158.479 891.36 158.479C889.946 158.479 888.867 157.874 888.12 156.664C887.373 155.454 887 153.705 887 151.419C887 149.145 887.373 147.403 888.12 146.193C888.867 144.983 889.946 144.378 891.36 144.378ZM888.42 151.419C888.42 153.041 888.567 154.31 888.86 155.228L893.3 146.393C892.833 145.768 892.186 145.455 891.36 145.455C890.44 145.455 889.72 145.947 889.2 146.931C888.68 147.902 888.42 149.398 888.42 151.419ZM891.36 157.382C892.293 157.382 893.02 156.896 893.54 155.926C894.06 154.942 894.319 153.439 894.319 151.419C894.319 149.703 894.153 148.374 893.82 147.43L889.38 156.345C889.86 157.036 890.52 157.382 891.36 157.382Z" fill="url(#paint73_linear_175_198)"/>
<path d="M891.36 167.171C892.786 167.171 893.866 167.776 894.599 168.986C895.346 170.183 895.719 171.924 895.719 174.211C895.719 176.498 895.346 178.247 894.599 179.457C893.866 180.666 892.786 181.271 891.36 181.271C889.946 181.271 888.867 180.666 888.12 179.457C887.373 178.247 887 176.498 887 174.211C887 171.938 887.373 170.196 888.12 168.986C888.867 167.776 889.946 167.171 891.36 167.171ZM888.42 174.211C888.42 175.833 888.567 177.103 888.86 178.021L893.3 169.186C892.833 168.561 892.186 168.248 891.36 168.248C890.44 168.248 889.72 168.74 889.2 169.724C888.68 170.695 888.42 172.19 888.42 174.211ZM891.36 180.174C892.293 180.174 893.02 179.689 893.54 178.719C894.06 177.735 894.319 176.232 894.319 174.211C894.319 172.496 894.153 171.167 893.82 170.223L889.38 179.137C889.86 179.829 890.52 180.174 891.36 180.174Z" fill="url(#paint74_linear_175_198)"/>
<path d="M892.56 202.808H895.499V203.865H887.88V202.808H891.28V191.599L888.04 193.534L887.48 192.636L891.48 190.163H892.56V202.808Z" fill="url(#paint75_linear_175_198)"/>
<path d="M891.36 212.757C892.786 212.757 893.866 213.362 894.599 214.572C895.346 215.768 895.719 217.51 895.719 219.797C895.719 222.084 895.346 223.832 894.599 225.042C893.866 226.252 892.786 226.857 891.36 226.857C889.946 226.857 888.867 226.252 888.12 225.042C887.373 223.832 887 222.084 887 219.797C887 217.523 887.373 215.782 888.12 214.572C888.867 213.362 889.946 212.757 891.36 212.757ZM888.42 219.797C888.42 221.419 888.567 222.689 888.86 223.606L893.3 214.771C892.833 214.146 892.186 213.834 891.36 213.834C890.44 213.834 889.72 214.326 889.2 215.31C888.68 216.28 888.42 217.776 888.42 219.797ZM891.36 225.76C892.293 225.76 893.02 225.275 893.54 224.304C894.06 223.32 894.319 221.818 894.319 219.797C894.319 218.082 894.153 216.752 893.82 215.808L889.38 224.723C889.86 225.414 890.52 225.76 891.36 225.76Z" fill="url(#paint76_linear_175_198)"/>
<path d="M892.56 248.393H895.499V249.45H887.88V248.393H891.28V237.185L888.04 239.12L887.48 238.222L891.48 235.749H892.56V248.393Z" fill="url(#paint77_linear_175_198)"/>
<path d="M892.56 271.186H895.499V272.243H887.88V271.186H891.28V259.978L888.04 261.912L887.48 261.015L891.48 258.542H892.56V271.186Z" fill="url(#paint78_linear_175_198)"/>
<path d="M929.7 111.637H932.64V112.694H925.02V111.637H928.42V100.428L925.18 102.363L924.62 101.465L928.62 98.9922H929.7V111.637Z" fill="url(#paint79_linear_175_198)"/>
<path d="M928.5 121.586C929.927 121.586 931.006 122.191 931.74 123.4C932.486 124.597 932.86 126.339 932.86 128.626C932.86 130.913 932.486 132.661 931.74 133.871C931.006 135.081 929.927 135.686 928.5 135.686C927.087 135.686 926.007 135.081 925.26 133.871C924.514 132.661 924.14 130.913 924.14 128.626C924.14 126.352 924.514 124.61 925.26 123.4C926.007 122.191 927.087 121.586 928.5 121.586ZM925.56 128.626C925.56 130.248 925.707 131.518 926 132.435L930.44 123.6C929.973 122.975 929.327 122.663 928.5 122.663C927.58 122.663 926.86 123.155 926.34 124.138C925.82 125.109 925.56 126.605 925.56 128.626ZM928.5 134.589C929.433 134.589 930.16 134.104 930.68 133.133C931.2 132.149 931.46 130.647 931.46 128.626C931.46 126.911 931.293 125.581 930.96 124.637L926.52 133.552C927 134.243 927.66 134.589 928.5 134.589Z" fill="url(#paint80_linear_175_198)"/>
<path d="M929.7 157.222H932.64V158.279H925.02V157.222H928.42V146.014L925.18 147.948L924.62 147.051L928.62 144.578H929.7V157.222Z" fill="url(#paint81_linear_175_198)"/>
<path d="M929.7 180.015H932.64V181.072H925.02V180.015H928.42V168.807L925.18 170.741L924.62 169.844L928.62 167.371H929.7V180.015Z" fill="url(#paint82_linear_175_198)"/>
<path d="M928.5 189.964C929.927 189.964 931.006 190.569 931.74 191.779C932.486 192.976 932.86 194.717 932.86 197.004C932.86 199.291 932.486 201.039 931.74 202.249C931.006 203.459 929.927 204.064 928.5 204.064C927.087 204.064 926.007 203.459 925.26 202.249C924.514 201.039 924.14 199.291 924.14 197.004C924.14 194.731 924.514 192.989 925.26 191.779C926.007 190.569 927.087 189.964 928.5 189.964ZM925.56 197.004C925.56 198.626 925.707 199.896 926 200.813L930.44 191.978C929.973 191.353 929.327 191.041 928.5 191.041C927.58 191.041 926.86 191.533 926.34 192.517C925.82 193.487 925.56 194.983 925.56 197.004ZM928.5 202.967C929.433 202.967 930.16 202.482 930.68 201.511C931.2 200.528 931.46 199.025 931.46 197.004C931.46 195.289 931.293 193.959 930.96 193.015L926.52 201.93C927 202.622 927.66 202.967 928.5 202.967Z" fill="url(#paint83_linear_175_198)"/>
<path d="M929.7 225.601H932.64V226.658H925.02V225.601H928.42V214.392L925.18 216.327L924.62 215.429L928.62 212.956H929.7V225.601Z" fill="url(#paint84_linear_175_198)"/>
<path d="M929.7 248.393H932.64V249.45H925.02V248.393H928.42V237.185L925.18 239.12L924.62 238.222L928.62 235.749H929.7V248.393Z" fill="url(#paint85_linear_175_198)"/>
<path d="M928.5 258.342C929.927 258.342 931.006 258.947 931.74 260.157C932.486 261.354 932.86 263.096 932.86 265.383C932.86 267.669 932.486 269.418 931.74 270.628C931.006 271.838 929.927 272.443 928.5 272.443C927.087 272.443 926.007 271.838 925.26 270.628C924.514 269.418 924.14 267.669 924.14 265.383C924.14 263.109 924.514 261.367 925.26 260.157C926.007 258.947 927.087 258.342 928.5 258.342ZM925.56 265.383C925.56 267.005 925.707 268.274 926 269.192L930.44 260.357C929.973 259.732 929.327 259.419 928.5 259.419C927.58 259.419 926.86 259.911 926.34 260.895C925.82 261.866 925.56 263.362 925.56 265.383ZM928.5 271.346C929.433 271.346 930.16 270.86 930.68 269.89C931.2 268.906 931.46 267.404 931.46 265.383C931.46 263.667 931.293 262.338 930.96 261.394L926.52 270.309C927 271 927.66 271.346 928.5 271.346Z" fill="url(#paint86_linear_175_198)"/>
<path d="M929.7 293.979H932.64V295.036H925.02V293.979H928.42V282.771L925.18 284.705L924.62 283.808L928.62 281.335H929.7V293.979Z" fill="url(#paint87_linear_175_198)"/>
<path d="M928.5 303.928C929.927 303.928 931.006 304.533 931.74 305.743C932.486 306.94 932.86 308.681 932.86 310.968C932.86 313.255 932.486 315.003 931.74 316.213C931.006 317.423 929.927 318.028 928.5 318.028C927.087 318.028 926.007 317.423 925.26 316.213C924.514 315.003 924.14 313.255 924.14 310.968C924.14 308.695 924.514 306.953 925.26 305.743C926.007 304.533 927.087 303.928 928.5 303.928ZM925.56 310.968C925.56 312.59 925.707 313.86 926 314.777L930.44 305.942C929.973 305.317 929.327 305.005 928.5 305.005C927.58 305.005 926.86 305.497 926.34 306.481C925.82 307.451 925.56 308.947 925.56 310.968ZM928.5 316.931C929.433 316.931 930.16 316.446 930.68 315.475C931.2 314.492 931.46 312.989 931.46 310.968C931.46 309.253 931.293 307.923 930.96 306.979L926.52 315.894C927 316.586 927.66 316.931 928.5 316.931Z" fill="url(#paint88_linear_175_198)"/>
<path d="M965.64 98.7928C967.067 98.7928 968.147 99.3978 968.88 100.608C969.627 101.804 970 103.546 970 105.833C970 108.12 969.627 109.868 968.88 111.078C968.147 112.288 967.067 112.893 965.64 112.893C964.227 112.893 963.147 112.288 962.401 111.078C961.654 109.868 961.281 108.12 961.281 105.833C961.281 103.559 961.654 101.818 962.401 100.608C963.147 99.3978 964.227 98.7928 965.64 98.7928ZM962.701 105.833C962.701 107.455 962.847 108.725 963.14 109.642L967.58 100.807C967.114 100.182 966.467 99.8698 965.64 99.8698C964.72 99.8698 964 100.362 963.48 101.346C962.96 102.316 962.701 103.812 962.701 105.833ZM965.64 111.796C966.574 111.796 967.3 111.311 967.82 110.34C968.34 109.356 968.6 107.854 968.6 105.833C968.6 104.118 968.433 102.788 968.1 101.844L963.66 110.759C964.14 111.45 964.8 111.796 965.64 111.796Z" fill="url(#paint89_linear_175_198)"/>
<path d="M966.84 134.429H969.78V135.486H962.161V134.429H965.56V123.221L962.321 125.156L961.761 124.258L965.76 121.785H966.84V134.429Z" fill="url(#paint90_linear_175_198)"/>
<path d="M966.84 157.222H969.78V158.279H962.161V157.222H965.56V146.014L962.321 147.948L961.761 147.051L965.76 144.578H966.84V157.222Z" fill="url(#paint91_linear_175_198)"/>
<path d="M965.64 167.171C967.067 167.171 968.147 167.776 968.88 168.986C969.627 170.183 970 171.924 970 174.211C970 176.498 969.627 178.247 968.88 179.457C968.147 180.666 967.067 181.271 965.64 181.271C964.227 181.271 963.147 180.666 962.401 179.457C961.654 178.247 961.281 176.498 961.281 174.211C961.281 171.938 961.654 170.196 962.401 168.986C963.147 167.776 964.227 167.171 965.64 167.171ZM962.701 174.211C962.701 175.833 962.847 177.103 963.14 178.021L967.58 169.186C967.114 168.561 966.467 168.248 965.64 168.248C964.72 168.248 964 168.74 963.48 169.724C962.96 170.695 962.701 172.19 962.701 174.211ZM965.64 180.174C966.574 180.174 967.3 179.689 967.82 178.719C968.34 177.735 968.6 176.232 968.6 174.211C968.6 172.496 968.433 171.167 968.1 170.223L963.66 179.137C964.14 179.829 964.8 180.174 965.64 180.174Z" fill="url(#paint92_linear_175_198)"/>
<path d="M965.64 189.964C967.067 189.964 968.147 190.569 968.88 191.779C969.627 192.976 970 194.717 970 197.004C970 199.291 969.627 201.039 968.88 202.249C968.147 203.459 967.067 204.064 965.64 204.064C964.227 204.064 963.147 203.459 962.401 202.249C961.654 201.039 961.281 199.291 961.281 197.004C961.281 194.731 961.654 192.989 962.401 191.779C963.147 190.569 964.227 189.964 965.64 189.964ZM962.701 197.004C962.701 198.626 962.847 199.896 963.14 200.813L967.58 191.978C967.114 191.353 966.467 191.041 965.64 191.041C964.72 191.041 964 191.533 963.48 192.517C962.96 193.487 962.701 194.983 962.701 197.004ZM965.64 202.967C966.574 202.967 967.3 202.482 967.82 201.511C968.34 200.528 968.6 199.025 968.6 197.004C968.6 195.289 968.433 193.959 968.1 193.015L963.66 201.93C964.14 202.622 964.8 202.967 965.64 202.967Z" fill="url(#paint93_linear_175_198)"/>
</g>
<defs>
<filter id="filter0_f_175_198" x="-568.19" y="-610.19" width="2141.38" height="1500.38" filterUnits="userSpaceOnUse" color-interpolation-filters="sRGB">
<feFlood flood-opacity="0" result="BackgroundImageFix"/>
<feBlend mode="normal" in="SourceGraphic" in2="BackgroundImageFix" result="shape"/>
<feGaussianBlur stdDeviation="200.095" result="effect1_foregroundBlur_175_198"/>
</filter>
<linearGradient id="paint0_linear_175_198" x1="42.5" y1="376" x2="42.5" y2="687.381" gradientUnits="userSpaceOnUse">
<stop stop-color="#F7DD43"/>
<stop offset="1" stop-color="#F7DD43" stop-opacity="0"/>
</linearGradient>
<linearGradient id="paint1_linear_175_198" x1="42.5" y1="376" x2="42.5" y2="687.381" gradientUnits="userSpaceOnUse">
<stop stop-color="#F7DD43"/>
<stop offset="1" stop-color="#F7DD43" stop-opacity="0"/>
</linearGradient>
<linearGradient id="paint2_linear_175_198" x1="42.5" y1="376" x2="42.5" y2="687.381" gradientUnits="userSpaceOnUse">
<stop stop-color="#F7DD43"/>
<stop offset="1" stop-color="#F7DD43" stop-opacity="0"/>
</linearGradient>
<linearGradient id="paint3_linear_175_198" x1="42.5" y1="376" x2="42.5" y2="687.381" gradientUnits="userSpaceOnUse">
<stop stop-color="#F7DD43"/>
<stop offset="1" stop-color="#F7DD43" stop-opacity="0"/>
</linearGradient>
<linearGradient id="paint4_linear_175_198" x1="42.5" y1="376" x2="42.5" y2="687.381" gradientUnits="userSpaceOnUse">
<stop stop-color="#F7DD43"/>
<stop offset="1" stop-color="#F7DD43" stop-opacity="0"/>
</linearGradient>
<linearGradient id="paint5_linear_175_198" x1="42.5" y1="376" x2="42.5" y2="687.381" gradientUnits="userSpaceOnUse">
<stop stop-color="#F7DD43"/>
<stop offset="1" stop-color="#F7DD43" stop-opacity="0"/>
</linearGradient>
<linearGradient id="paint6_linear_175_198" x1="42.5" y1="376" x2="42.5" y2="687.381" gradientUnits="userSpaceOnUse">
<stop stop-color="#F7DD43"/>
<stop offset="1" stop-color="#F7DD43" stop-opacity="0"/>
</linearGradient>
<linearGradient id="paint7_linear_175_198" x1="42.5" y1="376" x2="42.5" y2="687.381" gradientUnits="userSpaceOnUse">
<stop stop-color="#F7DD43"/>
<stop offset="1" stop-color="#F7DD43" stop-opacity="0"/>
</linearGradient>
<linearGradient id="paint8_linear_175_198" x1="42.5" y1="376" x2="42.5" y2="687.381" gradientUnits="userSpaceOnUse">
<stop stop-color="#F7DD43"/>
<stop offset="1" stop-color="#F7DD43" stop-opacity="0"/>
</linearGradient>
<linearGradient id="paint9_linear_175_198" x1="42.5" y1="376" x2="42.5" y2="687.381" gradientUnits="userSpaceOnUse">
<stop stop-color="#F7DD43"/>
<stop offset="1" stop-color="#F7DD43" stop-opacity="0"/>
</linearGradient>
<linearGradient id="paint10_linear_175_198" x1="42.5" y1="376" x2="42.5" y2="687.381" gradientUnits="userSpaceOnUse">
<stop stop-color="#F7DD43"/>
<stop offset="1" stop-color="#F7DD43" stop-opacity="0"/>
</linearGradient>
<linearGradient id="paint11_linear_175_198" x1="42.5" y1="376" x2="42.5" y2="687.381" gradientUnits="userSpaceOnUse">
<stop stop-color="#F7DD43"/>
<stop offset="1" stop-color="#F7DD43" stop-opacity="0"/>
</linearGradient>
<linearGradient id="paint12_linear_175_198" x1="42.5" y1="376" x2="42.5" y2="687.381" gradientUnits="userSpaceOnUse">
<stop stop-color="#F7DD43"/>
<stop offset="1" stop-color="#F7DD43" stop-opacity="0"/>
</linearGradient>
<linearGradient id="paint13_linear_175_198" x1="42.5" y1="376" x2="42.5" y2="687.381" gradientUnits="userSpaceOnUse">
<stop stop-color="#F7DD43"/>
<stop offset="1" stop-color="#F7DD43" stop-opacity="0"/>
</linearGradient>
<linearGradient id="paint14_linear_175_198" x1="42.5" y1="376" x2="42.5" y2="687.381" gradientUnits="userSpaceOnUse">
<stop stop-color="#F7DD43"/>
<stop offset="1" stop-color="#F7DD43" stop-opacity="0"/>
</linearGradient>
<linearGradient id="paint15_linear_175_198" x1="42.5" y1="376" x2="42.5" y2="687.381" gradientUnits="userSpaceOnUse">
<stop stop-color="#F7DD43"/>
<stop offset="1" stop-color="#F7DD43" stop-opacity="0"/>
</linearGradient>
<linearGradient id="paint16_linear_175_198" x1="42.5" y1="376" x2="42.5" y2="687.381" gradientUnits="userSpaceOnUse">
<stop stop-color="#F7DD43"/>
<stop offset="1" stop-color="#F7DD43" stop-opacity="0"/>
</linearGradient>
<linearGradient id="paint17_linear_175_198" x1="42.5" y1="376" x2="42.5" y2="687.381" gradientUnits="userSpaceOnUse">
<stop stop-color="#F7DD43"/>
<stop offset="1" stop-color="#F7DD43" stop-opacity="0"/>
</linearGradient>
<linearGradient id="paint18_linear_175_198" x1="42.5" y1="376" x2="42.5" y2="687.381" gradientUnits="userSpaceOnUse">
<stop stop-color="#F7DD43"/>
<stop offset="1" stop-color="#F7DD43" stop-opacity="0"/>
</linearGradient>
<linearGradient id="paint19_linear_175_198" x1="42.5" y1="376" x2="42.5" y2="687.381" gradientUnits="userSpaceOnUse">
<stop stop-color="#F7DD43"/>
<stop offset="1" stop-color="#F7DD43" stop-opacity="0"/>
</linearGradient>
<linearGradient id="paint20_linear_175_198" x1="42.5" y1="376" x2="42.5" y2="687.381" gradientUnits="userSpaceOnUse">
<stop stop-color="#F7DD43"/>
<stop offset="1" stop-color="#F7DD43" stop-opacity="0"/>
</linearGradient>
<linearGradient id="paint21_linear_175_198" x1="42.5" y1="376" x2="42.5" y2="687.381" gradientUnits="userSpaceOnUse">
<stop stop-color="#F7DD43"/>
<stop offset="1" stop-color="#F7DD43" stop-opacity="0"/>
</linearGradient>
<linearGradient id="paint22_linear_175_198" x1="42.5" y1="376" x2="42.5" y2="687.381" gradientUnits="userSpaceOnUse">
<stop stop-color="#F7DD43"/>
<stop offset="1" stop-color="#F7DD43" stop-opacity="0"/>
</linearGradient>
<linearGradient id="paint23_linear_175_198" x1="42.5" y1="376" x2="42.5" y2="687.381" gradientUnits="userSpaceOnUse">
<stop stop-color="#F7DD43"/>
<stop offset="1" stop-color="#F7DD43" stop-opacity="0"/>
</linearGradient>
<linearGradient id="paint24_linear_175_198" x1="42.5" y1="376" x2="42.5" y2="687.381" gradientUnits="userSpaceOnUse">
<stop stop-color="#F7DD43"/>
<stop offset="1" stop-color="#F7DD43" stop-opacity="0"/>
</linearGradient>
<linearGradient id="paint25_linear_175_198" x1="42.5" y1="376" x2="42.5" y2="687.381" gradientUnits="userSpaceOnUse">
<stop stop-color="#F7DD43"/>
<stop offset="1" stop-color="#F7DD43" stop-opacity="0"/>
</linearGradient>
<linearGradient id="paint26_linear_175_198" x1="42.5" y1="376" x2="42.5" y2="687.381" gradientUnits="userSpaceOnUse">
<stop stop-color="#F7DD43"/>
<stop offset="1" stop-color="#F7DD43" stop-opacity="0"/>
</linearGradient>
<linearGradient id="paint27_linear_175_198" x1="42.5" y1="376" x2="42.5" y2="687.381" gradientUnits="userSpaceOnUse">
<stop stop-color="#F7DD43"/>
<stop offset="1" stop-color="#F7DD43" stop-opacity="0"/>
</linearGradient>
<linearGradient id="paint28_linear_175_198" x1="42.5" y1="376" x2="42.5" y2="687.381" gradientUnits="userSpaceOnUse">
<stop stop-color="#F7DD43"/>
<stop offset="1" stop-color="#F7DD43" stop-opacity="0"/>
</linearGradient>
<linearGradient id="paint29_linear_175_198" x1="42.5" y1="376" x2="42.5" y2="687.381" gradientUnits="userSpaceOnUse">
<stop stop-color="#F7DD43"/>
<stop offset="1" stop-color="#F7DD43" stop-opacity="0"/>
</linearGradient>
<linearGradient id="paint30_linear_175_198" x1="42.5" y1="376" x2="42.5" y2="687.381" gradientUnits="userSpaceOnUse">
<stop stop-color="#F7DD43"/>
<stop offset="1" stop-color="#F7DD43" stop-opacity="0"/>
</linearGradient>
<linearGradient id="paint31_linear_175_198" x1="42.5" y1="376" x2="42.5" y2="687.381" gradientUnits="userSpaceOnUse">
<stop stop-color="#F7DD43"/>
<stop offset="1" stop-color="#F7DD43" stop-opacity="0"/>
</linearGradient>
<linearGradient id="paint32_linear_175_198" x1="42.5" y1="376" x2="42.5" y2="687.381" gradientUnits="userSpaceOnUse">
<stop stop-color="#F7DD43"/>
<stop offset="1" stop-color="#F7DD43" stop-opacity="0"/>
</linearGradient>
<linearGradient id="paint33_linear_175_198" x1="42.5" y1="376" x2="42.5" y2="687.381" gradientUnits="userSpaceOnUse">
<stop stop-color="#F7DD43"/>
<stop offset="1" stop-color="#F7DD43" stop-opacity="0"/>
</linearGradient>
<linearGradient id="paint34_linear_175_198" x1="42.5" y1="376" x2="42.5" y2="687.381" gradientUnits="userSpaceOnUse">
<stop stop-color="#F7DD43"/>
<stop offset="1" stop-color="#F7DD43" stop-opacity="0"/>
</linearGradient>
<linearGradient id="paint35_linear_175_198" x1="42.5" y1="376" x2="42.5" y2="687.381" gradientUnits="userSpaceOnUse">
<stop stop-color="#F7DD43"/>
<stop offset="1" stop-color="#F7DD43" stop-opacity="0"/>
</linearGradient>
<linearGradient id="paint36_linear_175_198" x1="42.5" y1="376" x2="42.5" y2="687.381" gradientUnits="userSpaceOnUse">
<stop stop-color="#F7DD43"/>
<stop offset="1" stop-color="#F7DD43" stop-opacity="0"/>
</linearGradient>
<linearGradient id="paint37_linear_175_198" x1="42.5" y1="376" x2="42.5" y2="687.381" gradientUnits="userSpaceOnUse">
<stop stop-color="#F7DD43"/>
<stop offset="1" stop-color="#F7DD43" stop-opacity="0"/>
</linearGradient>
<linearGradient id="paint38_linear_175_198" x1="42.5" y1="376" x2="42.5" y2="687.381" gradientUnits="userSpaceOnUse">
<stop stop-color="#F7DD43"/>
<stop offset="1" stop-color="#F7DD43" stop-opacity="0"/>
</linearGradient>
<linearGradient id="paint39_linear_175_198" x1="42.5" y1="376" x2="42.5" y2="687.381" gradientUnits="userSpaceOnUse">
<stop stop-color="#F7DD43"/>
<stop offset="1" stop-color="#F7DD43" stop-opacity="0"/>
</linearGradient>
<linearGradient id="paint40_linear_175_198" x1="42.5" y1="376" x2="42.5" y2="687.381" gradientUnits="userSpaceOnUse">
<stop stop-color="#F7DD43"/>
<stop offset="1" stop-color="#F7DD43" stop-opacity="0"/>
</linearGradient>
<linearGradient id="paint41_linear_175_198" x1="42.5" y1="376" x2="42.5" y2="687.381" gradientUnits="userSpaceOnUse">
<stop stop-color="#F7DD43"/>
<stop offset="1" stop-color="#F7DD43" stop-opacity="0"/>
</linearGradient>
<linearGradient id="paint42_linear_175_198" x1="42.5" y1="376" x2="42.5" y2="687.381" gradientUnits="userSpaceOnUse">
<stop stop-color="#F7DD43"/>
<stop offset="1" stop-color="#F7DD43" stop-opacity="0"/>
</linearGradient>
<linearGradient id="paint43_linear_175_198" x1="42.5" y1="376" x2="42.5" y2="687.381" gradientUnits="userSpaceOnUse">
<stop stop-color="#F7DD43"/>
<stop offset="1" stop-color="#F7DD43" stop-opacity="0"/>
</linearGradient>
<linearGradient id="paint44_linear_175_198" x1="42.5" y1="376" x2="42.5" y2="687.381" gradientUnits="userSpaceOnUse">
<stop stop-color="#F7DD43"/>
<stop offset="1" stop-color="#F7DD43" stop-opacity="0"/>
</linearGradient>
<linearGradient id="paint45_linear_175_198" x1="42.5" y1="376" x2="42.5" y2="687.381" gradientUnits="userSpaceOnUse">
<stop stop-color="#F7DD43"/>
<stop offset="1" stop-color="#F7DD43" stop-opacity="0"/>
</linearGradient>
<linearGradient id="paint46_linear_175_198" x1="42.5" y1="376" x2="42.5" y2="687.381" gradientUnits="userSpaceOnUse">
<stop stop-color="#F7DD43"/>
<stop offset="1" stop-color="#F7DD43" stop-opacity="0"/>
</linearGradient>
<linearGradient id="paint47_linear_175_198" x1="928.5" y1="76" x2="928.5" y2="374.818" gradientUnits="userSpaceOnUse">
<stop stop-color="#F7DD43"/>
<stop offset="1" stop-color="#F7DD43" stop-opacity="0"/>
</linearGradient>
<linearGradient id="paint48_linear_175_198" x1="928.5" y1="76" x2="928.5" y2="374.818" gradientUnits="userSpaceOnUse">
<stop stop-color="#F7DD43"/>
<stop offset="1" stop-color="#F7DD43" stop-opacity="0"/>
</linearGradient>
<linearGradient id="paint49_linear_175_198" x1="928.5" y1="76" x2="928.5" y2="374.818" gradientUnits="userSpaceOnUse">
<stop stop-color="#F7DD43"/>
<stop offset="1" stop-color="#F7DD43" stop-opacity="0"/>
</linearGradient>
<linearGradient id="paint50_linear_175_198" x1="928.5" y1="76" x2="928.5" y2="374.818" gradientUnits="userSpaceOnUse">
<stop stop-color="#F7DD43"/>
<stop offset="1" stop-color="#F7DD43" stop-opacity="0"/>
</linearGradient>
<linearGradient id="paint51_linear_175_198" x1="928.5" y1="76" x2="928.5" y2="374.818" gradientUnits="userSpaceOnUse">
<stop stop-color="#F7DD43"/>
<stop offset="1" stop-color="#F7DD43" stop-opacity="0"/>
</linearGradient>
<linearGradient id="paint52_linear_175_198" x1="928.5" y1="76" x2="928.5" y2="374.818" gradientUnits="userSpaceOnUse">
<stop stop-color="#F7DD43"/>
<stop offset="1" stop-color="#F7DD43" stop-opacity="0"/>
</linearGradient>
<linearGradient id="paint53_linear_175_198" x1="928.5" y1="76" x2="928.5" y2="374.818" gradientUnits="userSpaceOnUse">
<stop stop-color="#F7DD43"/>
<stop offset="1" stop-color="#F7DD43" stop-opacity="0"/>
</linearGradient>
<linearGradient id="paint54_linear_175_198" x1="928.5" y1="76" x2="928.5" y2="374.818" gradientUnits="userSpaceOnUse">
<stop stop-color="#F7DD43"/>
<stop offset="1" stop-color="#F7DD43" stop-opacity="0"/>
</linearGradient>
<linearGradient id="paint55_linear_175_198" x1="928.5" y1="76" x2="928.5" y2="374.818" gradientUnits="userSpaceOnUse">
<stop stop-color="#F7DD43"/>
<stop offset="1" stop-color="#F7DD43" stop-opacity="0"/>
</linearGradient>
<linearGradient id="paint56_linear_175_198" x1="928.5" y1="76" x2="928.5" y2="374.818" gradientUnits="userSpaceOnUse">
<stop stop-color="#F7DD43"/>
<stop offset="1" stop-color="#F7DD43" stop-opacity="0"/>
</linearGradient>
<linearGradient id="paint57_linear_175_198" x1="928.5" y1="76" x2="928.5" y2="374.818" gradientUnits="userSpaceOnUse">
<stop stop-color="#F7DD43"/>
<stop offset="1" stop-color="#F7DD43" stop-opacity="0"/>
</linearGradient>
<linearGradient id="paint58_linear_175_198" x1="928.5" y1="76" x2="928.5" y2="374.818" gradientUnits="userSpaceOnUse">
<stop stop-color="#F7DD43"/>
<stop offset="1" stop-color="#F7DD43" stop-opacity="0"/>
</linearGradient>
<linearGradient id="paint59_linear_175_198" x1="928.5" y1="76" x2="928.5" y2="374.818" gradientUnits="userSpaceOnUse">
<stop stop-color="#F7DD43"/>
<stop offset="1" stop-color="#F7DD43" stop-opacity="0"/>
</linearGradient>
<linearGradient id="paint60_linear_175_198" x1="928.5" y1="76" x2="928.5" y2="374.818" gradientUnits="userSpaceOnUse">
<stop stop-color="#F7DD43"/>
<stop offset="1" stop-color="#F7DD43" stop-opacity="0"/>
</linearGradient>
<linearGradient id="paint61_linear_175_198" x1="928.5" y1="76" x2="928.5" y2="374.818" gradientUnits="userSpaceOnUse">
<stop stop-color="#F7DD43"/>
<stop offset="1" stop-color="#F7DD43" stop-opacity="0"/>
</linearGradient>
<linearGradient id="paint62_linear_175_198" x1="928.5" y1="76" x2="928.5" y2="374.818" gradientUnits="userSpaceOnUse">
<stop stop-color="#F7DD43"/>
<stop offset="1" stop-color="#F7DD43" stop-opacity="0"/>
</linearGradient>
<linearGradient id="paint63_linear_175_198" x1="928.5" y1="76" x2="928.5" y2="374.818" gradientUnits="userSpaceOnUse">
<stop stop-color="#F7DD43"/>
<stop offset="1" stop-color="#F7DD43" stop-opacity="0"/>
</linearGradient>
<linearGradient id="paint64_linear_175_198" x1="928.5" y1="76" x2="928.5" y2="374.818" gradientUnits="userSpaceOnUse">
<stop stop-color="#F7DD43"/>
<stop offset="1" stop-color="#F7DD43" stop-opacity="0"/>
</linearGradient>
<linearGradient id="paint65_linear_175_198" x1="928.5" y1="76" x2="928.5" y2="374.818" gradientUnits="userSpaceOnUse">
<stop stop-color="#F7DD43"/>
<stop offset="1" stop-color="#F7DD43" stop-opacity="0"/>
</linearGradient>
<linearGradient id="paint66_linear_175_198" x1="928.5" y1="76" x2="928.5" y2="374.818" gradientUnits="userSpaceOnUse">
<stop stop-color="#F7DD43"/>
<stop offset="1" stop-color="#F7DD43" stop-opacity="0"/>
</linearGradient>
<linearGradient id="paint67_linear_175_198" x1="928.5" y1="76" x2="928.5" y2="374.818" gradientUnits="userSpaceOnUse">
<stop stop-color="#F7DD43"/>
<stop offset="1" stop-color="#F7DD43" stop-opacity="0"/>
</linearGradient>
<linearGradient id="paint68_linear_175_198" x1="928.5" y1="76" x2="928.5" y2="374.818" gradientUnits="userSpaceOnUse">
<stop stop-color="#F7DD43"/>
<stop offset="1" stop-color="#F7DD43" stop-opacity="0"/>
</linearGradient>
<linearGradient id="paint69_linear_175_198" x1="928.5" y1="76" x2="928.5" y2="374.818" gradientUnits="userSpaceOnUse">
<stop stop-color="#F7DD43"/>
<stop offset="1" stop-color="#F7DD43" stop-opacity="0"/>
</linearGradient>
<linearGradient id="paint70_linear_175_198" x1="928.5" y1="76" x2="928.5" y2="374.818" gradientUnits="userSpaceOnUse">
<stop stop-color="#F7DD43"/>
<stop offset="1" stop-color="#F7DD43" stop-opacity="0"/>
</linearGradient>
<linearGradient id="paint71_linear_175_198" x1="928.5" y1="76" x2="928.5" y2="374.818" gradientUnits="userSpaceOnUse">
<stop stop-color="#F7DD43"/>
<stop offset="1" stop-color="#F7DD43" stop-opacity="0"/>
</linearGradient>
<linearGradient id="paint72_linear_175_198" x1="928.5" y1="76" x2="928.5" y2="374.818" gradientUnits="userSpaceOnUse">
<stop stop-color="#F7DD43"/>
<stop offset="1" stop-color="#F7DD43" stop-opacity="0"/>
</linearGradient>
<linearGradient id="paint73_linear_175_198" x1="928.5" y1="76" x2="928.5" y2="374.818" gradientUnits="userSpaceOnUse">
<stop stop-color="#F7DD43"/>
<stop offset="1" stop-color="#F7DD43" stop-opacity="0"/>
</linearGradient>
<linearGradient id="paint74_linear_175_198" x1="928.5" y1="76" x2="928.5" y2="374.818" gradientUnits="userSpaceOnUse">
<stop stop-color="#F7DD43"/>
<stop offset="1" stop-color="#F7DD43" stop-opacity="0"/>
</linearGradient>
<linearGradient id="paint75_linear_175_198" x1="928.5" y1="76" x2="928.5" y2="374.818" gradientUnits="userSpaceOnUse">
<stop stop-color="#F7DD43"/>
<stop offset="1" stop-color="#F7DD43" stop-opacity="0"/>
</linearGradient>
<linearGradient id="paint76_linear_175_198" x1="928.5" y1="76" x2="928.5" y2="374.818" gradientUnits="userSpaceOnUse">
<stop stop-color="#F7DD43"/>
<stop offset="1" stop-color="#F7DD43" stop-opacity="0"/>
</linearGradient>
<linearGradient id="paint77_linear_175_198" x1="928.5" y1="76" x2="928.5" y2="374.818" gradientUnits="userSpaceOnUse">
<stop stop-color="#F7DD43"/>
<stop offset="1" stop-color="#F7DD43" stop-opacity="0"/>
</linearGradient>
<linearGradient id="paint78_linear_175_198" x1="928.5" y1="76" x2="928.5" y2="374.818" gradientUnits="userSpaceOnUse">
<stop stop-color="#F7DD43"/>
<stop offset="1" stop-color="#F7DD43" stop-opacity="0"/>
</linearGradient>
<linearGradient id="paint79_linear_175_198" x1="928.5" y1="76" x2="928.5" y2="374.818" gradientUnits="userSpaceOnUse">
<stop stop-color="#F7DD43"/>
<stop offset="1" stop-color="#F7DD43" stop-opacity="0"/>
</linearGradient>
<linearGradient id="paint80_linear_175_198" x1="928.5" y1="76" x2="928.5" y2="374.818" gradientUnits="userSpaceOnUse">
<stop stop-color="#F7DD43"/>
<stop offset="1" stop-color="#F7DD43" stop-opacity="0"/>
</linearGradient>
<linearGradient id="paint81_linear_175_198" x1="928.5" y1="76" x2="928.5" y2="374.818" gradientUnits="userSpaceOnUse">
<stop stop-color="#F7DD43"/>
<stop offset="1" stop-color="#F7DD43" stop-opacity="0"/>
</linearGradient>
<linearGradient id="paint82_linear_175_198" x1="928.5" y1="76" x2="928.5" y2="374.818" gradientUnits="userSpaceOnUse">
<stop stop-color="#F7DD43"/>
<stop offset="1" stop-color="#F7DD43" stop-opacity="0"/>
</linearGradient>
<linearGradient id="paint83_linear_175_198" x1="928.5" y1="76" x2="928.5" y2="374.818" gradientUnits="userSpaceOnUse">
<stop stop-color="#F7DD43"/>
<stop offset="1" stop-color="#F7DD43" stop-opacity="0"/>
</linearGradient>
<linearGradient id="paint84_linear_175_198" x1="928.5" y1="76" x2="928.5" y2="374.818" gradientUnits="userSpaceOnUse">
<stop stop-color="#F7DD43"/>
<stop offset="1" stop-color="#F7DD43" stop-opacity="0"/>
</linearGradient>
<linearGradient id="paint85_linear_175_198" x1="928.5" y1="76" x2="928.5" y2="374.818" gradientUnits="userSpaceOnUse">
<stop stop-color="#F7DD43"/>
<stop offset="1" stop-color="#F7DD43" stop-opacity="0"/>
</linearGradient>
<linearGradient id="paint86_linear_175_198" x1="928.5" y1="76" x2="928.5" y2="374.818" gradientUnits="userSpaceOnUse">
<stop stop-color="#F7DD43"/>
<stop offset="1" stop-color="#F7DD43" stop-opacity="0"/>
</linearGradient>
<linearGradient id="paint87_linear_175_198" x1="928.5" y1="76" x2="928.5" y2="374.818" gradientUnits="userSpaceOnUse">
<stop stop-color="#F7DD43"/>
<stop offset="1" stop-color="#F7DD43" stop-opacity="0"/>
</linearGradient>
<linearGradient id="paint88_linear_175_198" x1="928.5" y1="76" x2="928.5" y2="374.818" gradientUnits="userSpaceOnUse">
<stop stop-color="#F7DD43"/>
<stop offset="1" stop-color="#F7DD43" stop-opacity="0"/>
</linearGradient>
<linearGradient id="paint89_linear_175_198" x1="928.5" y1="76" x2="928.5" y2="374.818" gradientUnits="userSpaceOnUse">
<stop stop-color="#F7DD43"/>
<stop offset="1" stop-color="#F7DD43" stop-opacity="0"/>
</linearGradient>
<linearGradient id="paint90_linear_175_198" x1="928.5" y1="76" x2="928.5" y2="374.818" gradientUnits="userSpaceOnUse">
<stop stop-color="#F7DD43"/>
<stop offset="1" stop-color="#F7DD43" stop-opacity="0"/>
</linearGradient>
<linearGradient id="paint91_linear_175_198" x1="928.5" y1="76" x2="928.5" y2="374.818" gradientUnits="userSpaceOnUse">
<stop stop-color="#F7DD43"/>
<stop offset="1" stop-color="#F7DD43" stop-opacity="0"/>
</linearGradient>
<linearGradient id="paint92_linear_175_198" x1="928.5" y1="76" x2="928.5" y2="374.818" gradientUnits="userSpaceOnUse">
<stop stop-color="#F7DD43"/>
<stop offset="1" stop-color="#F7DD43" stop-opacity="0"/>
</linearGradient>
<linearGradient id="paint93_linear_175_198" x1="928.5" y1="76" x2="928.5" y2="374.818" gradientUnits="userSpaceOnUse">
<stop stop-color="#F7DD43"/>
<stop offset="1" stop-color="#F7DD43" stop-opacity="0"/>
</linearGradient>
</defs>
</svg>
